<svg width="38" height="22" viewBox="0 0 512 297" fill="none" xmlns="http://www.w3.org/2000/svg">
<path d="M253.313 29.6704L145.519 105.117C130.609 115.534 126.985 136.034 137.402 150.957C147.819 165.867 168.319 169.491 183.242 159.074L291.037 83.6276C335.66 52.3766 397.293 63.2349 428.437 107.858C459.688 152.482 448.83 214.114 404.206 245.259L370.321 268.941C398.389 316.64 461.881 296.568 490.725 245.366C520.879 191.85 519.783 123.544 482.287 70.028C430.282 -4.21493 327.543 -22.3076 253.313 29.6704Z" fill="#FFFFFF"/>
<path d="M258.674 266.84L366.468 191.393C381.379 180.976 385.002 160.476 374.585 145.553C364.168 130.643 343.669 127.019 328.745 137.436L220.951 212.882C176.328 244.133 114.695 233.275 83.5509 188.652C52.2999 144.028 63.1582 82.3955 107.781 51.2514L141.667 27.5691C113.612 -20.1165 50.1202 -0.04472 21.2761 51.1578C-8.87836 104.674 -7.78184 172.979 29.7141 226.495C81.6921 300.725 184.431 318.938 258.674 266.853V266.84Z" fill="#FFFFFF"/>
</svg>
