<?xml version="1.0" encoding="utf-8"?>
<!-- Generator: Adobe Illustrator 19.0.0, SVG Export Plug-In . SVG Version: 6.00 Build 0)  -->
<!DOCTYPE svg PUBLIC "-//W3C//DTD SVG 1.1//EN" "http://www.w3.org/Graphics/SVG/1.1/DTD/svg11.dtd">
<svg version="1.1" id="Layer_1" xmlns="http://www.w3.org/2000/svg" xmlns:xlink="http://www.w3.org/1999/xlink" x="0px" y="0px"
	 viewBox="-355 222.5 312 324.5" enable-background="new -355 222.5 312 324.5" xml:space="preserve">
<path fill="#2C7EB0" d="M-142.7,374.4c-2.8,0-5.6,0.2-8.3,0.7c-6.7-22-27.6-38-52.3-38c-30.1,0-54.5,23.9-54.5,53.3
	c0,2.6,0.2,5.2,0.6,7.7c-1.4-0.2-2.9-0.3-4.4-0.3c-20.5,0-37.1,16.2-37.1,36.3c0,20,16.6,36.3,37.1,36.3h51.1v-38.6l-21.5-0.3
	l35.9-51.3l35.9,51.3l-21.5,0.3v38.6h39.1c27.1,0,49.1-21.5,49.1-48C-93.6,395.9-115.6,374.4-142.7,374.4z"/>
<path fill="#2C7EB0" d="M-277.1,537.4v-22.9h7.9c1.8,0,3.1,0.1,4.1,0.3c1.3,0.3,2.4,0.8,3.4,1.6c1.2,1,2.1,2.3,2.7,3.9
	c0.6,1.6,0.9,3.4,0.9,5.4c0,1.7-0.2,3.3-0.6,4.6s-0.9,2.5-1.6,3.3c-0.6,0.9-1.3,1.6-2.1,2.1c-0.8,0.5-1.7,0.9-2.7,1.1
	c-1.1,0.3-2.3,0.4-3.7,0.4h-8.3V537.4z M-274,534.7h4.9c1.5,0,2.7-0.1,3.6-0.4s1.5-0.7,2.1-1.2c0.7-0.7,1.3-1.7,1.7-2.9
	c0.4-1.2,0.6-2.7,0.6-4.4c0-2.4-0.4-4.2-1.2-5.5c-0.8-1.3-1.7-2.1-2.9-2.6c-0.8-0.3-2.1-0.5-3.9-0.5h-4.8v17.5H-274z M-255.4,537.4
	v-16.6h2.5v2.5c0.6-1.2,1.2-2,1.8-2.3s1.1-0.6,1.8-0.6c0.9,0,1.9,0.3,2.9,0.9l-1,2.6c-0.7-0.4-1.4-0.6-2.1-0.6
	c-0.6,0-1.2,0.2-1.7,0.6c-0.5,0.4-0.8,0.9-1,1.5c-0.3,1-0.5,2.1-0.5,3.3v8.7L-255.4,537.4L-255.4,537.4z M-234.4,535.4
	c-1,0.9-2,1.5-3,1.9s-2,0.5-3.1,0.5c-1.8,0-3.2-0.4-4.2-1.3c-1-0.9-1.5-2-1.5-3.4c0-0.8,0.2-1.6,0.6-2.2c0.4-0.7,0.9-1.2,1.5-1.6
	c0.6-0.4,1.3-0.7,2-0.9c0.6-0.1,1.4-0.3,2.5-0.4c2.3-0.3,3.9-0.6,5-1c0-0.4,0-0.6,0-0.7c0-1.1-0.3-2-0.8-2.4c-0.7-0.6-1.8-1-3.2-1
	c-1.3,0-2.3,0.2-2.9,0.7c-0.6,0.5-1.1,1.3-1.4,2.5l-2.8-0.4c0.2-1.2,0.7-2.1,1.2-2.9c0.6-0.7,1.4-1.3,2.5-1.7s2.3-0.6,3.8-0.6
	c1.4,0,2.6,0.2,3.5,0.5s1.5,0.8,2,1.3c0.4,0.5,0.7,1.1,0.9,1.9c0.1,0.5,0.1,1.3,0.1,2.6v3.8c0,2.6,0.1,4.3,0.2,5
	c0.1,0.7,0.4,1.4,0.7,2h-2.9C-234.1,536.9-234.3,536.2-234.4,535.4z M-234.6,529.1c-1,0.4-2.6,0.8-4.6,1.1c-1.2,0.2-2,0.4-2.5,0.6
	c-0.5,0.2-0.8,0.5-1.1,0.9s-0.4,0.8-0.4,1.3c0,0.8,0.3,1.4,0.9,1.9c0.6,0.5,1.4,0.8,2.5,0.8s2-0.2,2.9-0.7c0.8-0.5,1.5-1.1,1.9-1.9
	c0.3-0.6,0.5-1.6,0.5-2.8L-234.6,529.1L-234.6,529.1z M-228.4,538.8l2.7,0.4c0.1,0.8,0.4,1.5,1,1.8c0.7,0.5,1.7,0.8,2.9,0.8
	c1.3,0,2.3-0.3,3-0.8s1.2-1.2,1.4-2.2c0.1-0.6,0.2-1.8,0.2-3.6c-1.2,1.4-2.8,2.2-4.6,2.2c-2.3,0-4-0.8-5.3-2.5
	c-1.2-1.6-1.9-3.6-1.9-5.9c0-1.6,0.3-3,0.9-4.4c0.6-1.3,1.4-2.4,2.5-3.1c1.1-0.7,2.4-1.1,3.8-1.1c2,0,3.6,0.8,4.8,2.4v-2h2.6v14.3
	c0,2.6-0.3,4.4-0.8,5.5s-1.4,1.9-2.5,2.6s-2.5,0.9-4.2,0.9c-2,0-3.6-0.4-4.8-1.3S-228.4,540.6-228.4,538.8z M-226,528.8
	c0,2.2,0.4,3.8,1.3,4.8c0.9,1,1.9,1.5,3.2,1.5s2.4-0.5,3.2-1.5c0.9-1,1.3-2.6,1.3-4.7c0-2-0.5-3.6-1.4-4.6s-2-1.5-3.3-1.5
	c-1.2,0-2.3,0.5-3.2,1.5S-226,526.8-226,528.8z M-189,534.7c-0.9,1-1.9,1.8-3,2.3s-2.3,0.8-3.5,0.8c-2.3,0-4.2-0.8-5.6-2.4
	c-1.1-1.3-1.7-2.7-1.7-4.3c0-1.4,0.5-2.7,1.4-3.8s2.3-2.1,4.1-3c-1-1.2-1.7-2.2-2.1-2.9c-0.3-0.7-0.5-1.5-0.5-2.1
	c0-1.4,0.5-2.6,1.6-3.6s2.4-1.5,4.1-1.5c1.6,0,2.8,0.5,3.8,1.4c1,1,1.5,2.1,1.5,3.5c0,2.2-1.4,4-4.3,5.6l4.1,5.2
	c0.5-0.9,0.8-2,1.1-3.2l2.9,0.6c-0.5,2-1.2,3.6-2,4.9c1.1,1.4,2.2,2.6,3.6,3.5l-1.9,2.2C-186.6,537.2-187.8,536.2-189,534.7z
	 M-190.7,532.5l-5.2-6.4c-1.5,0.9-2.5,1.7-3.1,2.5c-0.5,0.8-0.8,1.5-0.8,2.3c0,0.9,0.4,1.9,1.1,2.9c0.7,1,1.8,1.5,3.1,1.5
	c0.8,0,1.7-0.3,2.6-0.8C-192,534-191.3,533.3-190.7,532.5z M-194.7,522.8c1.2-0.7,2-1.3,2.4-1.9c0.4-0.5,0.5-1.1,0.5-1.8
	c0-0.8-0.2-1.4-0.7-1.9s-1.1-0.7-1.9-0.7c-0.8,0-1.4,0.2-1.9,0.7s-0.8,1.1-0.8,1.8c0,0.4,0.1,0.7,0.3,1.1c0.2,0.4,0.5,0.8,0.8,1.2
	L-194.7,522.8z M-162,537.4v-2.1c-1.1,1.6-2.6,2.5-4.6,2.5c-1.3,0-2.5-0.4-3.6-1.1s-2-1.7-2.6-3.1c-0.6-1.3-0.9-2.8-0.9-4.5
	s0.3-3.2,0.8-4.5c0.6-1.3,1.4-2.4,2.5-3.1c1.1-0.7,2.3-1.1,3.7-1.1c1,0,1.9,0.2,2.7,0.6s1.4,1,1.9,1.6v-8.2h2.8v22.9L-162,537.4
	L-162,537.4z M-170.9,529.2c0,2.1,0.4,3.7,1.3,4.8c0.9,1.1,2,1.6,3.2,1.6s2.3-0.5,3.1-1.5c0.9-1,1.3-2.5,1.3-4.6
	c0-2.3-0.4-3.9-1.3-5s-2-1.6-3.2-1.6s-2.3,0.5-3.1,1.5C-170.4,525.3-170.9,527-170.9,529.2z M-155.4,537.4v-16.6h2.5v2.5
	c0.6-1.2,1.2-2,1.8-2.3s1.1-0.6,1.8-0.6c0.9,0,1.9,0.3,2.9,0.9l-1,2.6c-0.7-0.4-1.4-0.6-2.1-0.6c-0.6,0-1.2,0.2-1.7,0.6
	c-0.5,0.4-0.8,0.9-1,1.5c-0.3,1-0.5,2.1-0.5,3.3v8.7L-155.4,537.4L-155.4,537.4z M-146.2,529.1c0-3.1,0.9-5.3,2.6-6.8
	c1.4-1.2,3.2-1.8,5.2-1.8c2.3,0,4.1,0.7,5.6,2.2c1.4,1.5,2.2,3.6,2.2,6.2c0,2.1-0.3,3.8-1,5c-0.6,1.2-1.6,2.2-2.8,2.9s-2.6,1-4,1
	c-2.3,0-4.2-0.7-5.6-2.2C-145.5,534.1-146.2,531.9-146.2,529.1z M-143.3,529.1c0,2.1,0.5,3.7,1.4,4.8s2.1,1.6,3.5,1.6
	s2.6-0.5,3.5-1.6s1.4-2.7,1.4-4.9c0-2.1-0.5-3.6-1.4-4.7c-0.9-1.1-2.1-1.6-3.5-1.6s-2.6,0.5-3.5,1.6
	C-142.9,525.4-143.3,527-143.3,529.1z M-127.8,543.8v-23h2.6v2.2c0.6-0.8,1.3-1.5,2-1.9c0.8-0.4,1.7-0.6,2.8-0.6
	c1.4,0,2.7,0.4,3.8,1.1c1.1,0.7,1.9,1.8,2.5,3.1s0.8,2.8,0.8,4.4c0,1.7-0.3,3.2-0.9,4.6s-1.5,2.4-2.7,3.1c-1.2,0.7-2.4,1.1-3.7,1.1
	c-0.9,0-1.8-0.2-2.5-0.6c-0.7-0.4-1.4-0.9-1.8-1.5v8.1L-127.8,543.8L-127.8,543.8z M-125.3,529.2c0,2.1,0.4,3.7,1.3,4.7
	s1.9,1.5,3.1,1.5s2.3-0.5,3.2-1.6c0.9-1.1,1.3-2.7,1.3-4.9c0-2.1-0.4-3.7-1.3-4.8s-1.9-1.6-3.1-1.6s-2.3,0.6-3.2,1.7
	C-124.8,525.5-125.3,527.1-125.3,529.2z"/>
<path fill="#2C7EB0" d="M-172.5,241.5l-2.8-16.1l-56.5,9.9l8.3,47.2l5.6-0.9v4.1h57.4v-44.1h-12V241.5z M-217.9,276.8l-1.8,0.3
	l-6.7-38.1l47.4-8.4l1.9,10.8h-40.7v35.4H-217.9z M-165.2,280.9h-48.1v-34.8h48.1V280.9z M-210.1,249.2V275l9.8-6.5l6,3.8l14.7-16.1
	l1.9,0.8l9.5,11v-18.7L-210.1,249.2L-210.1,249.2z M-200.8,260.4c-2.2,0-4.1-1.9-4.1-4.1c0-2.2,1.9-4.1,4.1-4.1
	c2.2,0,4.1,1.9,4.1,4.1C-196.7,258.5-198.6,260.4-200.8,260.4z"/>
<path fill="#2C7EB0" d="M-331.5,277.8v35.4c-2-0.9-4.6-1.1-7.1-0.6c-5.4,1.2-9.1,5.6-8.3,9.8c0.7,3.4,4.3,5.9,8.7,5.9
	c0.9,0,1.8-0.1,2.7-0.3c4.7-1,8.2-4.5,8.4-8.3v-33.1l26.1-3.9v25.8c-2-0.9-4.6-1.1-7.1-0.6c-5.4,1.2-9.1,5.6-8.3,9.8
	c0.7,3.4,4.3,5.9,8.7,5.9l0,0c0.9,0,1.8-0.1,2.7-0.3c4.7-1,8.2-4.5,8.4-8.3v-42.1L-331.5,277.8z"/>
<path fill="#2C7EB0" d="M-52.7,319.3v-6.7h6.7v-7.5h-6.7v-6.7h6.7v-6.7h-6.7v-7.5h6.7v-6.7h-65.1v6.7h6.7v7.5h-6.7v6.7h6.7v6.7h-6.7
	v7.5h6.7v6.7h-6.7v6.7H-46v-6.7H-52.7z M-82.8,309.1v-13.9l12.1,7L-82.8,309.1z"/>
</svg>
