<svg xmlns="http://www.w3.org/2000/svg" viewBox="0 0 1449.38 289.17"><title>RGB - Silverstripe logo</title><g id="New_kerning" data-name="New kerning"><path d="M114.32,189.65h0A48.7,48.7,0,0,0,127,122L86.8,149.46l0,0A24.35,24.35,0,0,1,59.31,109.3h0L96,84.18,119.58,68A48.67,48.67,0,0,0,132.25.33L92.07,27.83,31.79,69.11h0a73,73,0,1,0,82.53,120.54Z" fill="#005be0"/><path d="M167.19,94.46h0a48.71,48.71,0,0,0-12.66,67.69l40.18-27.5h0a24.35,24.35,0,0,1,27.51,40.18h0l-36.68,25.12L161.94,216.1a48.68,48.68,0,0,0-12.68,67.69l40.19-27.51L249.73,215h0A73,73,0,1,0,167.19,94.46Z" fill="#005be0"/><path d="M1362.9,168.64c4,15,16.12,21.29,31.13,21.29,11,0,20.45-6.45,25.3-13l21.32,15.36c-10.37,15.41-25.87,24.17-47.06,24.17-37.09,0-60.49-26.05-60.49-59.81s23.62-59.8,58.28-59.8c32.67,0,55.85,26.5,55.85,59.8a69.43,69.43,0,0,1-1.1,12Zm-.44-22.66h56.3c-3.54-16.31-15.46-22.88-27.38-22.88C1376.15,123.1,1365.77,131.49,1362.46,146Z" fill="#051c2c"/><path d="M715.75,168.64c4,15,16.11,21.29,31.12,21.29,11,0,20.45-6.45,25.31-13l21.32,15.36c-10.38,15.41-25.88,24.17-47.07,24.17-37.09,0-60.49-26.05-60.49-59.81s23.62-59.8,58.28-59.8c32.68,0,55.86,26.5,55.86,59.8a68.44,68.44,0,0,1-1.11,12ZM715.3,146h56.3c-3.53-16.31-15.45-22.88-27.38-22.88C729,123.1,718.62,131.49,715.3,146Z" fill="#051c2c"/><path d="M491.71,86.4a18.07,18.07,0,0,1-17.88-17.89c0-9.74,8.15-18.12,17.88-18.12a18.32,18.32,0,0,1,18.12,18.12A18.12,18.12,0,0,1,491.71,86.4Z" fill="#051c2c"/><rect x="477.22" y="100" width="29.21" height="113.27" fill="#051c2c"/><rect x="528.69" y="42.85" width="29.21" height="170.42" fill="#051c2c"/><polygon points="655.04 100 687.2 100 645.7 213.27 612.41 213.27 570.9 100 603.06 100 628.94 179.28 655.04 100" fill="#051c2c"/><path d="M843.76,119.48c5.88-15.41,20.15-21.75,34.42-21.75v32.62c-15.18-1.81-34.42,5-34.42,28.77v54.15H814.55V100h29.21Z" fill="#051c2c"/><path d="M919,132.17c0-6.12,5.89-9.29,13.13-9.29a25.1,25.1,0,0,1,20.14,11.32l21.93-14.92c-9-14.62-24.36-22.45-42.07-22.45-23.32,0-43,12.91-43,36,0,39.88,58.42,30.81,58.42,47.35,0,6.57-6.34,9.74-15.63,9.74a25.46,25.46,0,0,1-23.64-15.63l-23.49,16c8.29,16.91,24.85,26.15,47.13,26.15,24.23,0,45.52-11.78,45.52-36.25C977.39,138.51,919,148.93,919,132.17Z" fill="#051c2c"/><path d="M1056,128.09H1030.4v47.12c0,12.23,8.83,12.46,25.59,11.55v26.51c-41,4.53-54.8-7.48-54.8-38.06V128.09h-19.7V100h19.7V77.12l29.21-20.18V100H1056Z" fill="#051c2c"/><path d="M1100.46,119.48c5.89-15.41,20.15-21.75,34.42-21.75v32.62c-15.17-1.81-34.42,5-34.42,28.77v54.15h-29.21V100h29.21Z" fill="#051c2c"/><path d="M1165.32,86.4a18.07,18.07,0,0,1-17.89-17.89c0-9.74,8.15-18.12,17.89-18.12a18.32,18.32,0,0,1,18.11,18.12A18.12,18.12,0,0,1,1165.32,86.4Z" fill="#051c2c"/><rect x="1150.83" y="100" width="29.21" height="113.27" fill="#051c2c"/><path d="M1266.67,96.83c30.34,0,55.25,26.05,55.25,59.8s-24.91,59.81-55.25,59.81c-16.53,0-28.53-6.12-36.69-16.54v55.54h-29.21V100H1230v13.36C1238.14,102.94,1250.14,96.83,1266.67,96.83Zm-5.44,91.74c18.12,0,31.48-12.91,31.48-31.94s-13.36-31.94-31.48-31.94c-17.89,0-31.25,12.91-31.25,31.94S1243.34,188.57,1261.23,188.57Z" fill="#051c2c"/><path d="M409.14,119.12c-24.45-7.39-30.68-12.69-30.68-22.61,0-9.23,7.85-16.15,21.22-16.15a38.79,38.79,0,0,1,34,19.7l24.51-17.14C447,61.68,425.32,49.44,399.68,49.44c-27.67,0-53,17.53-53,48,0,30.69,24,41.07,48.66,48.22,24,6.92,34.83,11.54,34.83,23.54,0,9-6.69,17.07-25.83,17.07s-32.3-11.91-38.44-26.09l-25.13,17.57c9.23,22.95,30.6,39.67,62.64,39.67,34.37,0,58.58-18.46,58.58-48.69C462,135.73,434.74,127.19,409.14,119.12Z" fill="#051c2c"/></g></svg>